HIERARCHY
ROOT hip
{
	OFFSET 0.000000 0.000000 0.000000
	CHANNELS 6 Xposition Yposition Zposition Xrotation Zrotation Yrotation 
	JOINT abdomen
	{
		OFFSET 0.000000 3.422050 0.000000
		CHANNELS 3 Xrotation Zrotation Yrotation 
		JOINT chest
		{
			OFFSET 0.000000 8.486693 -0.684411
			CHANNELS 3 Xrotation Zrotation Yrotation 
			JOINT neck
			{
				OFFSET 0.000000 10.266162 -0.273764
				CHANNELS 3 Xrotation Zrotation Yrotation 
				JOINT head
				{
					OFFSET 0.000000 3.148285 0.000000
					CHANNELS 3 Xrotation Zrotation Yrotation 
					End Site
					{
						OFFSET 0.000000 3.148289 0.000000
					}
				}
			}
			JOINT lCollar
			{
				OFFSET 3.422053 6.707223 -0.821293
				CHANNELS 3 Yrotation Zrotation Xrotation 
				JOINT lShldr
				{
					OFFSET 3.285171 0.000000 0.000000
					CHANNELS 3 Zrotation Yrotation Xrotation 
					JOINT lForeArm
					{
						OFFSET 10.129278 0.000000 0.000000
						CHANNELS 3 Yrotation Zrotation Xrotation 
						JOINT lHand
						{
							OFFSET 8.486692 0.000000 0.000000
							CHANNELS 3 Zrotation Yrotation Xrotation 
							End Site
							{
								OFFSET 4.106464 0.000000 0.000000
							}
						}
					}
				}
			}
			JOINT rCollar
			{
				OFFSET -3.558935 6.707223 -0.821293
				CHANNELS 3 Yrotation Zrotation Xrotation 
				JOINT rShldr
				{
					OFFSET -3.148289 0.000000 0.000000
					CHANNELS 3 Zrotation Yrotation Xrotation 
					JOINT rForeArm
					{
						OFFSET -10.266159 0.000000 0.000000
						CHANNELS 3 Yrotation Zrotation Xrotation 
						JOINT rHand
						{
							OFFSET -8.349810 0.000000 0.000000
							CHANNELS 3 Zrotation Yrotation Xrotation 
							End Site
							{
								OFFSET -4.106464 0.000000 0.000000
							}
						}
					}
				}
			}
		}
	}
	JOINT lThigh
	{
		OFFSET 5.338403 -1.642589 1.368821
		CHANNELS 3 Xrotation Zrotation Yrotation 
		JOINT lShin
		{
			OFFSET -2.053232 -20.121670 0.000000
			CHANNELS 3 Xrotation Zrotation Yrotation 
			JOINT lFoot
			{
				OFFSET 0.000000 -19.300380 -1.231939
				CHANNELS 3 Xrotation Yrotation Zrotation 
				End Site
				{
					OFFSET 0.000000 -2.463878 4.653993
				}
			}
		}
	}
	JOINT rThigh
	{
		OFFSET -5.338403 -1.642589 1.368821
		CHANNELS 3 Xrotation Zrotation Yrotation 
		JOINT rShin
		{
			OFFSET 2.053232 -20.121670 0.000000
			CHANNELS 3 Xrotation Zrotation Yrotation 
			JOINT rFoot
			{
				OFFSET 0.000000 -19.300380 -1.231939
				CHANNELS 3 Xrotation Yrotation Zrotation 
				End Site
				{
					OFFSET 0.000000 -2.463878 4.653993
				}
			}
		}
	}
}
MOTION
Frames: 11
Frame Time: 0.033264
0.000000 43.528500 0.000000 0.000000 0.000000 0.000000 0.000000 0.000000 0.000000 0.000000 0.000000 0.000000 0.000000 0.000000 0.000000 0.000000 0.000000 0.000000 0.000000 0.000000 0.000000 0.000000 0.000000 0.000000 0.000000 0.000000 0.000000 0.000000 0.000000 0.000000 0.000000 0.000000 0.000000 0.000000 0.000000 0.000000 0.000000 0.000000 0.000000 0.000000 0.000000 0.000000 0.000000 0.000000 0.000000 0.000000 0.000000 0.000000 0.000000 0.000000 0.000000 0.000000 0.000000 0.000000 0.000000 0.000000 0.000000 0.000000 0.000000 0.000000 
0.820027 30.651463 -0.105129 40.996567 0.000000 0.000000 -12.453085 -0.941251 -0.743387 7.668748 -5.850242 -7.695405 -0.089177 0.000000 0.000000 0.389926 -0.176600 -0.000603 -39.837379 -2.120449 -12.019618 -42.707363 26.449734 -5.821329 -69.348907 -24.627672 -12.820045 43.375610 -11.603696 -29.708544 -20.731863 46.817440 10.895830 34.924438 -18.792973 -4.781755 12.072030 38.601105 8.535994 7.378743 32.594910 -41.557156 -49.888428 53.884281 -22.682592 91.160538 0.666473 -0.366677 69.222000 8.758040 -43.473969 -49.907166 -53.923302 22.642868 91.160698 -0.725923 0.375961 69.206215 -8.789440 43.400864 
0.820027 30.622761 0.105465 40.055168 0.000000 0.000000 -12.453086 -0.941251 -0.743387 8.007591 -5.841385 -7.690138 -0.044015 0.000000 0.000000 0.462307 -0.176042 -0.000685 -39.844685 -2.565130 -11.846196 -42.713814 26.433281 -5.824093 -68.377869 -24.490469 -12.464458 43.156708 -11.881944 -29.950001 -20.452797 47.010830 10.698885 34.925819 -18.360394 -4.737952 12.072030 38.601105 8.535994 8.360489 31.850780 -41.871681 -48.049458 54.587635 -21.549120 90.482277 0.611451 -0.372323 69.063194 9.032658 -42.913025 -48.030270 -54.617668 21.470463 90.481407 -0.670724 0.382382 69.045586 -9.064434 42.838829 
0.820027 30.594059 0.316059 39.112747 0.000000 0.000000 -12.453085 -0.941251 -0.743387 8.346476 -5.832559 -7.684815 0.001148 0.000000 0.000000 0.534693 -0.175483 -0.000768 -39.850639 -3.009956 -11.672717 -42.720264 26.416828 -5.826856 -67.407944 -24.347673 -12.111526 42.938728 -12.161162 -30.190683 -20.171715 47.203579 10.499823 34.927540 -17.927713 -4.694237 12.072029 38.601105 8.535994 9.341586 31.109539 -42.199364 -46.151081 55.270214 -20.354773 89.803650 0.556335 -0.377320 68.901451 9.305851 -42.350601 -46.093391 -55.289959 20.236576 89.801750 -0.615421 0.388150 68.882011 -9.337985 42.275311 
0.820027 30.565357 0.526654 38.169441 0.000000 0.000000 -12.453086 -0.941251 -0.743387 8.685397 -5.823761 -7.679440 0.046312 0.000000 0.000000 0.607085 -0.174924 -0.000849 -39.855244 -3.454905 -11.499164 -42.726719 26.400379 -5.829617 -66.439247 -24.199322 -11.761394 42.721668 -12.441334 -30.430576 -19.888599 47.395672 10.298625 34.929607 -17.494947 -4.650604 12.072029 38.601109 8.535994 10.322145 30.371635 -42.539932 -44.192028 55.930325 -19.098221 89.124687 0.501137 -0.381666 68.736809 9.577576 -41.786728 -44.095455 -55.938450 18.940065 89.121750 -0.560026 0.393265 68.715530 -9.610052 41.710331 
0.820027 30.536655 0.737248 37.225349 0.000000 0.000000 -12.453085 -0.941251 -0.743387 9.024352 -5.814996 -7.674014 0.091478 0.000000 0.000000 0.679483 -0.174365 -0.000930 -39.858509 -3.899959 -11.325528 -42.733173 26.383928 -5.832376 -65.472000 -24.045494 -11.414220 42.505543 -12.722444 -30.669699 -19.603428 47.587109 10.095271 34.932018 -17.062109 -4.607050 12.072028 38.601105 8.535994 11.302257 29.637526 -42.893108 -42.171234 56.566158 -17.778360 88.445450 0.445867 -0.385359 68.569283 9.847786 -41.221409 -42.035664 -56.561295 17.580103 88.441483 -0.504551 0.397723 68.546135 -9.880578 41.143879 
0.820027 30.507952 0.947842 36.280624 0.000000 0.000000 -12.453085 -0.941251 -0.743387 9.363331 -5.806261 -7.668533 0.136644 0.000000 0.000000 0.751886 -0.173806 -0.001010 -39.860428 -4.345099 -11.151789 -42.739609 26.367470 -5.835127 -64.506378 -23.886242 -11.070147 42.290333 -13.004473 -30.908024 -19.316193 47.777866 9.889750 34.934757 -16.629208 -4.563568 12.072030 38.601105 8.535992 12.282009 28.907660 -43.258636 -40.088032 57.175922 -16.394482 87.765991 0.390538 -0.388397 68.398849 10.116428 -40.654652 -39.913624 -57.156670 16.156235 87.760979 -0.449007 0.401524 68.373833 -10.149512 40.575977 
0.820027 30.479250 1.158437 35.335377 0.000000 0.000000 -12.453085 -0.941251 -0.743387 9.702329 -5.797558 -7.663000 0.181813 0.000000 0.000000 0.824295 -0.173247 -0.001089 -39.860985 -4.790305 -10.977931 -42.746067 26.351017 -5.837882 -63.542549 -23.721642 -10.729316 42.076061 -13.287403 -31.145567 -19.026861 47.967930 9.682034 34.937840 -16.196262 -4.520159 12.072030 38.601105 8.535994 13.261464 28.182468 -43.636208 -37.942131 57.757767 -14.946240 87.086342 0.335161 -0.390779 68.225548 10.383458 -40.086472 -37.729374 -57.722679 14.668465 87.080299 -0.393406 0.404665 68.198662 -10.416823 40.006649 
0.820027 30.450548 1.369031 34.389748 0.000000 0.000000 -12.453085 -0.941251 -0.743387 10.041341 -5.788887 -7.657416 0.226982 0.000000 0.000000 0.896709 -0.172688 -0.001167 -39.860188 -5.235557 -10.803942 -42.752495 26.334560 -5.840631 -62.580673 -23.551758 -10.391863 41.862728 -13.571225 -31.382326 -18.735418 48.157280 9.472105 34.941261 -15.763283 -4.476816 12.072030 38.601109 8.535993 14.240677 27.462402 -44.025547 -35.733730 58.309830 -13.433791 86.406548 0.279748 -0.392505 68.049370 10.648825 -39.516880 -35.483505 -58.257477 13.117335 86.399483 -0.337760 0.407146 68.020576 -10.682444 39.435879 
0.820027 30.421846 1.579625 33.443855 0.000000 0.000000 -12.453086 -0.941251 -0.743387 10.380362 -5.780250 -7.651782 0.272153 0.000000 0.000000 0.969128 -0.172128 -0.001245 -39.858032 -5.680834 -10.629806 -42.758938 26.318106 -5.843378 -61.620930 -23.376675 -10.057923 41.650330 -13.855919 -31.618296 -18.441845 48.345917 9.259946 34.945007 -15.330277 -4.433533 12.072030 38.601105 8.535994 15.219687 26.747900 -44.426384 -33.463581 58.830257 -11.857842 85.726654 0.224310 -0.393573 67.870338 10.912488 -38.945881 -33.177155 -58.759197 11.503937 85.718552 -0.282081 0.408966 67.839653 -10.946343 38.863708 
0.820027 30.393145 1.790220 32.497849 0.000000 0.000000 -12.453085 -0.941251 -0.743387 10.719383 -5.771645 -7.646095 0.317325 0.000000 0.000000 1.041553 -0.171568 -0.001323 -39.854511 -6.126119 -10.455504 -42.765373 26.301651 -5.846123 -60.663475 -23.196466 -9.727627 41.438873 -14.141465 -31.853476 -18.146132 48.533840 9.045544 34.949085 -14.897263 -4.390308 12.072030 38.601109 8.535995 16.198513 26.039373 -44.838398 -31.133034 59.317223 -10.219694 85.046730 0.168860 -0.393983 67.688477 11.174402 -38.373512 -30.812149 -59.226040 9.830050 85.037605 -0.226380 0.410124 67.655869 -11.208465 38.290142 
